<mxfile host="app.diagrams.net" modified="2023-10-31T20:42:17.706Z" agent="Mozilla/5.0 (Windows NT 10.0; Win64; x64) AppleWebKit/537.36 (KHTML, like Gecko) Chrome/118.0.0.0 Safari/537.36" etag="AqzWQ5xOc8LUCTeDJJsy" version="22.0.8" type="device">
  <diagram name="Page-1" id="CnYUmXf9ABbLwmmkKLi1">
    <mxGraphModel dx="1022" dy="1100" grid="1" gridSize="10" guides="1" tooltips="1" connect="1" arrows="1" fold="1" page="1" pageScale="1" pageWidth="850" pageHeight="1100" math="0" shadow="0">
      <root>
        <mxCell id="0" />
        <mxCell id="1" parent="0" />
        <mxCell id="lH6jsk3Omo3XRQFDLpyJ-30" value="&lt;b&gt;&amp;nbsp; Google &lt;/b&gt;Cloud Platform" style="fillColor=#F6F6F6;strokeColor=default;shadow=0;gradientColor=none;fontSize=14;align=left;spacing=10;fontColor=#717171;9E9E9E;verticalAlign=top;spacingTop=-4;fontStyle=0;spacingLeft=40;html=1;whiteSpace=wrap;" vertex="1" parent="1">
          <mxGeometry x="130" y="43" width="820" height="430" as="geometry" />
        </mxCell>
        <mxCell id="lH6jsk3Omo3XRQFDLpyJ-31" value="" style="shape=mxgraph.gcp2.google_cloud_platform;fillColor=#F6F6F6;strokeColor=none;shadow=0;gradientColor=none;" vertex="1" parent="lH6jsk3Omo3XRQFDLpyJ-30">
          <mxGeometry width="23" height="20" relative="1" as="geometry">
            <mxPoint x="20" y="10" as="offset" />
          </mxGeometry>
        </mxCell>
        <mxCell id="lH6jsk3Omo3XRQFDLpyJ-57" value="Layer 2" style="sketch=0;points=[[0,0,0],[0.25,0,0],[0.5,0,0],[0.75,0,0],[1,0,0],[1,0.25,0],[1,0.5,0],[1,0.75,0],[1,1,0],[0.75,1,0],[0.5,1,0],[0.25,1,0],[0,1,0],[0,0.75,0],[0,0.5,0],[0,0.25,0]];rounded=1;absoluteArcSize=1;arcSize=2;html=1;strokeColor=default;gradientColor=none;shadow=0;dashed=1;fontSize=12;fontColor=#9E9E9E;align=left;verticalAlign=top;spacing=10;spacingTop=-4;whiteSpace=wrap;fillColor=#F1F8E9;dashPattern=1 4;" vertex="1" parent="1">
          <mxGeometry x="475" y="89" width="240" height="371" as="geometry" />
        </mxCell>
        <mxCell id="lH6jsk3Omo3XRQFDLpyJ-67" value="Layer 1" style="sketch=0;points=[[0,0,0],[0.25,0,0],[0.5,0,0],[0.75,0,0],[1,0,0],[1,0.25,0],[1,0.5,0],[1,0.75,0],[1,1,0],[0.75,1,0],[0.5,1,0],[0.25,1,0],[0,1,0],[0,0.75,0],[0,0.5,0],[0,0.25,0]];rounded=1;absoluteArcSize=1;arcSize=2;html=1;strokeColor=default;gradientColor=none;shadow=0;dashed=1;fontSize=12;fontColor=#9E9E9E;align=left;verticalAlign=top;spacing=10;spacingTop=-4;whiteSpace=wrap;fillColor=#fef7e0;dashPattern=1 4;" vertex="1" parent="1">
          <mxGeometry x="143" y="89" width="320" height="371" as="geometry" />
        </mxCell>
        <mxCell id="lH6jsk3Omo3XRQFDLpyJ-1" value="Client" style="sketch=0;points=[[0,0,0],[0.25,0,0],[0.5,0,0],[0.75,0,0],[1,0,0],[1,0.25,0],[1,0.5,0],[1,0.75,0],[1,1,0],[0.75,1,0],[0.5,1,0],[0.25,1,0],[0,1,0],[0,0.75,0],[0,0.5,0],[0,0.25,0]];rounded=1;absoluteArcSize=1;arcSize=2;html=1;strokeColor=default;gradientColor=none;shadow=0;dashed=0;fontSize=12;fontColor=#9E9E9E;align=left;verticalAlign=top;spacing=10;spacingTop=-4;whiteSpace=wrap;" vertex="1" parent="1">
          <mxGeometry x="10" y="43" width="110" height="430" as="geometry" />
        </mxCell>
        <mxCell id="lH6jsk3Omo3XRQFDLpyJ-22" value="Users" style="strokeColor=#dddddd;shadow=1;strokeWidth=1;rounded=1;absoluteArcSize=1;arcSize=2;labelPosition=center;verticalLabelPosition=middle;align=center;verticalAlign=bottom;spacingLeft=0;fontColor=#999999;fontSize=12;whiteSpace=wrap;spacingBottom=2;html=1;" vertex="1" parent="1">
          <mxGeometry x="29" y="353" width="70" height="85" as="geometry" />
        </mxCell>
        <mxCell id="lH6jsk3Omo3XRQFDLpyJ-23" value="" style="sketch=0;dashed=0;connectable=0;html=1;fillColor=#757575;strokeColor=none;shape=mxgraph.gcp2.users;part=1;" vertex="1" parent="lH6jsk3Omo3XRQFDLpyJ-22">
          <mxGeometry x="0.5" width="50" height="31.5" relative="1" as="geometry">
            <mxPoint x="-25" y="19.25" as="offset" />
          </mxGeometry>
        </mxCell>
        <mxCell id="lH6jsk3Omo3XRQFDLpyJ-25" value="Phone" style="strokeColor=#dddddd;shadow=1;strokeWidth=1;rounded=1;absoluteArcSize=1;arcSize=2;labelPosition=center;verticalLabelPosition=middle;align=center;verticalAlign=bottom;spacingLeft=0;fontColor=#999999;fontSize=12;whiteSpace=wrap;spacingBottom=2;html=1;" vertex="1" parent="1">
          <mxGeometry x="29" y="140" width="70" height="85" as="geometry" />
        </mxCell>
        <mxCell id="lH6jsk3Omo3XRQFDLpyJ-26" value="" style="sketch=0;dashed=0;connectable=0;html=1;fillColor=#757575;strokeColor=none;shape=mxgraph.gcp2.phone;part=1;" vertex="1" parent="lH6jsk3Omo3XRQFDLpyJ-25">
          <mxGeometry x="0.5" width="32" height="50" relative="1" as="geometry">
            <mxPoint x="-16" y="10" as="offset" />
          </mxGeometry>
        </mxCell>
        <mxCell id="lH6jsk3Omo3XRQFDLpyJ-28" value="Retail" style="strokeColor=#dddddd;shadow=1;strokeWidth=1;rounded=1;absoluteArcSize=1;arcSize=2;labelPosition=center;verticalLabelPosition=middle;align=center;verticalAlign=bottom;spacingLeft=0;fontColor=#999999;fontSize=12;whiteSpace=wrap;spacingBottom=2;html=1;" vertex="1" parent="1">
          <mxGeometry x="29" y="247" width="70" height="85" as="geometry" />
        </mxCell>
        <mxCell id="lH6jsk3Omo3XRQFDLpyJ-29" value="" style="sketch=0;dashed=0;connectable=0;html=1;fillColor=#757575;strokeColor=none;shape=mxgraph.gcp2.retail;part=1;" vertex="1" parent="lH6jsk3Omo3XRQFDLpyJ-28">
          <mxGeometry x="0.5" width="50" height="44.5" relative="1" as="geometry">
            <mxPoint x="-25" y="12.75" as="offset" />
          </mxGeometry>
        </mxCell>
        <mxCell id="lH6jsk3Omo3XRQFDLpyJ-56" value="" style="shape=mxgraph.gcp2.google_cloud_platform;fillColor=#F6F6F6;strokeColor=none;shadow=0;gradientColor=none;" vertex="1" parent="1">
          <mxGeometry x="160" y="50" width="23" height="20" as="geometry" />
        </mxCell>
        <mxCell id="lH6jsk3Omo3XRQFDLpyJ-58" value="" style="strokeColor=#dddddd;shadow=1;strokeWidth=1;rounded=1;absoluteArcSize=1;arcSize=2;" vertex="1" parent="1">
          <mxGeometry x="503.1923076923076" y="312" width="184.7596153846154" height="60" as="geometry" />
        </mxCell>
        <mxCell id="lH6jsk3Omo3XRQFDLpyJ-59" value="&lt;font color=&quot;#000000&quot;&gt;Pix Batch Service&lt;/font&gt;&lt;br&gt;App Engine" style="editableCssRules=.*;html=1;fontColor=#999999;shape=image;verticalLabelPosition=middle;labelBackgroundColor=#ffffff;verticalAlign=middle;labelPosition=right;align=left;spacingLeft=20;part=1;points=[];imageAspect=0;image=data:image/svg+xml,PHN2ZyB4bWxucz0iaHR0cDovL3d3dy53My5vcmcvMjAwMC9zdmciIHhtbG5zOnY9Imh0dHBzOi8vdmVjdGEuaW8vbmFubyIgd2lkdGg9IjIwIiBoZWlnaHQ9IjE2LjAyMDAwMDQ1Nzc2MzY3MiIgZmlsbC1ydWxlPSJldmVub2RkIiB2aWV3Qm94PSI4Ljk0MDY5NjcxNjMwODU5NGUtOCAwIDIwIDE2LjAyMDAwMDQ1Nzc2MzY3MiI+JiN4YTsJPHN0eWxlIHR5cGU9InRleHQvY3NzIj4mI3hhOwkuc3Qwe2ZpbGw6IzQyODVmNDt9JiN4YTsJLnN0MXtmaWxsOiNhZWNiZmE7fSYjeGE7CS5zdDJ7ZmlsbDojNjY5ZGY2O30mI3hhOwk8L3N0eWxlPiYjeGE7CTxwYXRoIGNsYXNzPSJzdDAiIGQ9Ik0xMi4zIDcuMjZsLTEuMjIgMS4yMkExLjcxIDEuNzEgMCAwIDEgMTAgMTEuNDlhMS43NCAxLjc0IDAgMCAxLTEuMzMtLjY0bC0xLjIyIDEuMjJhMy40MyAzLjQzIDAgMCAwIDUuOTg0LTEuMzgxQTMuNDMgMy40MyAwIDAgMCAxMi4zIDcuMjZ6Ii8+JiN4YTsJPHBhdGggY2xhc3M9InN0MSIgZD0iTTEwIDMuNTJhNi4yNSA2LjI1IDAgMCAwIDAgMTIuNSA2LjI1IDYuMjUgMCAwIDAgMC0xMi41bTAgMTAuNzRhNC40NSA0LjQ1IDAgMCAxLTMuMTU3LTcuNTk3QTQuNDUgNC40NSAwIDAgMSAxNC40NCA5LjgyIDQuNDQgNC40NCAwIDAgMSAxMCAxNC4yNiIvPiYjeGE7CTxwYXRoIGNsYXNzPSJzdDIiIGQ9Ik0xOS42MiA5LjE2bC0yLjU2LS44MWE3LjEgNy4xIDAgMCAxIC4xNyAxLjUzIDcuNjIgNy42MiAwIDAgMS0uMDggMS4wOGgyLjQ3YS40NC40NCAwIDAgMCAuMzgtLjQydi0xYS40NC40NCAwIDAgMC0uMzgtLjQyTTEwIDIuNzhhNy40OCA3LjQ4IDAgMCAxIDEuNS4xNUwxMC41OC4zOGMtLjA3LS4yMi0uMjEtLjM4LS40Mi0uMzhoLS4zOGEuNDUuNDUgMCAwIDAtLjQyLjM4bC0uOCAyLjU0QTcuNjQgNy42NCAwIDAgMSAxMCAyLjc4bS03LjIzIDcuMWE3LjEgNy4xIDAgMCAxIC4xNy0xLjUzbC0yLjU2LjgxYS40NC40NCAwIDAgMC0uMzguNDJ2MWEuNDQuNDQgMCAwIDAgLjM4LjQyaDIuNDdhNy42MiA3LjYyIDAgMCAxLS4wOC0xLjA4Ii8+JiN4YTsJPHBhdGggY2xhc3M9InN0MSIgZD0iTTEwIDcuMjZhMi41IDIuNSAwIDEgMCAwIDUgMi41IDIuNSAwIDEgMCAwLTV6bTAgMy43NWExLjI1IDEuMjUgMCAxIDEgMC0yLjUgMS4yNSAxLjI1IDAgMCAxIDEuMjUgMS4yNUExLjI1IDEuMjUgMCAwIDEgMTAgMTEuMDJ6Ii8+JiN4YTs8L3N2Zz4=;" vertex="1" parent="lH6jsk3Omo3XRQFDLpyJ-58">
          <mxGeometry width="30" height="24" relative="1" as="geometry">
            <mxPoint x="15" y="18" as="offset" />
          </mxGeometry>
        </mxCell>
        <mxCell id="lH6jsk3Omo3XRQFDLpyJ-60" value="" style="shape=mxgraph.gcp2.doubleRect;strokeColor=#dddddd;shadow=1;strokeWidth=1;rounded=1;absoluteArcSize=1;arcSize=2;" vertex="1" parent="1">
          <mxGeometry x="514.8028846153846" y="140" width="161.53846153846155" height="68" as="geometry" />
        </mxCell>
        <mxCell id="lH6jsk3Omo3XRQFDLpyJ-61" value="&lt;font color=&quot;#000000&quot;&gt;Name&lt;/font&gt;&lt;br&gt;Logging" style="editableCssRules=.*;html=1;fontColor=#999999;shape=image;verticalLabelPosition=middle;labelBackgroundColor=#ffffff;verticalAlign=middle;labelPosition=right;align=left;spacingLeft=20;part=1;points=[];imageAspect=0;image=data:image/svg+xml,PHN2ZyB4bWxucz0iaHR0cDovL3d3dy53My5vcmcvMjAwMC9zdmciIHhtbG5zOnY9Imh0dHBzOi8vdmVjdGEuaW8vbmFubyIgd2lkdGg9IjIwIiBoZWlnaHQ9IjE5IiB2aWV3Qm94PSIwIDAgMjAgMTkiPiYjeGE7CTxzdHlsZSB0eXBlPSJ0ZXh0L2NzcyI+JiN4YTsJLnN0MHtmaWxsOiM0Mjg1ZjQ7fSYjeGE7CS5zdDF7ZmlsbDojNjY5ZGY2O30mI3hhOwkuc3Qye2ZpbGw6I2FlY2JmYTt9JiN4YTsJPC9zdHlsZT4mI3hhOwk8ZyBjbGFzcz0ic3QwIj4mI3hhOwkJPHBhdGggZD0iTTQgOWg0djJINHptLTIgN2g2djJIMnoiLz4mI3hhOwkJPHBhdGggZD0iTTQgNEgydjEyaDJ6Ii8+JiN4YTsJPC9nPiYjeGE7CTxwYXRoIGNsYXNzPSJzdDEiIGQ9Ik0yMCAxSDd2NGgxM3ptMCA3SDd2NGgxM3ptMCA3SDd2NGgxM3oiLz4mI3hhOwk8cGF0aCBjbGFzcz0ic3QyIiBkPSJNNiAwSDB2Nmg2eiIvPiYjeGE7PC9zdmc+;" vertex="1" parent="lH6jsk3Omo3XRQFDLpyJ-60">
          <mxGeometry width="30" height="28" relative="1" as="geometry">
            <mxPoint x="15" y="16" as="offset" />
          </mxGeometry>
        </mxCell>
        <mxCell id="lH6jsk3Omo3XRQFDLpyJ-62" value="" style="edgeStyle=orthogonalEdgeStyle;fontSize=12;html=1;endArrow=blockThin;endFill=1;rounded=0;strokeWidth=2;endSize=4;startSize=4;dashed=0;strokeColor=#9E9E9E;exitX=0.5;exitY=0;exitDx=0;exitDy=0;entryX=0.5;entryY=1;entryDx=0;entryDy=0;" edge="1" parent="1" source="lH6jsk3Omo3XRQFDLpyJ-58" target="lH6jsk3Omo3XRQFDLpyJ-60">
          <mxGeometry width="100" relative="1" as="geometry">
            <mxPoint x="498.6538461538462" y="200" as="sourcePoint" />
            <mxPoint x="599.6153846153845" y="200" as="targetPoint" />
          </mxGeometry>
        </mxCell>
        <mxCell id="lH6jsk3Omo3XRQFDLpyJ-63" value="Layer 3" style="sketch=0;points=[[0,0,0],[0.25,0,0],[0.5,0,0],[0.75,0,0],[1,0,0],[1,0.25,0],[1,0.5,0],[1,0.75,0],[1,1,0],[0.75,1,0],[0.5,1,0],[0.25,1,0],[0,1,0],[0,0.75,0],[0,0.5,0],[0,0.25,0]];rounded=1;absoluteArcSize=1;arcSize=2;html=1;strokeColor=default;gradientColor=none;shadow=0;dashed=1;fontSize=12;fontColor=#9E9E9E;align=left;verticalAlign=top;spacing=10;spacingTop=-4;whiteSpace=wrap;fillColor=#E0F2F1;dashPattern=1 4;" vertex="1" parent="1">
          <mxGeometry x="727" y="89" width="208.9" height="371" as="geometry" />
        </mxCell>
        <mxCell id="lH6jsk3Omo3XRQFDLpyJ-64" value="" style="shape=mxgraph.gcp2.doubleRect;strokeColor=#dddddd;shadow=1;strokeWidth=1;rounded=1;absoluteArcSize=1;arcSize=2;" vertex="1" parent="1">
          <mxGeometry x="748.0769230769231" y="308" width="161.53846153846155" height="68" as="geometry" />
        </mxCell>
        <mxCell id="lH6jsk3Omo3XRQFDLpyJ-65" value="&lt;font color=&quot;#000000&quot;&gt;Batch&lt;/font&gt;&lt;br&gt;Datastore" style="editableCssRules=.*;html=1;fontColor=#999999;shape=image;verticalLabelPosition=middle;labelBackgroundColor=#ffffff;verticalAlign=middle;labelPosition=right;align=left;spacingLeft=20;part=1;points=[];imageAspect=0;image=data:image/svg+xml,PHN2ZyB4bWxucz0iaHR0cDovL3d3dy53My5vcmcvMjAwMC9zdmciIHhtbG5zOnY9Imh0dHBzOi8vdmVjdGEuaW8vbmFubyIgd2lkdGg9IjMwIiBoZWlnaHQ9IjIxIiB2aWV3Qm94PSIwIDAgMzAgMjEiPiYjeGE7CTxzdHlsZSB0eXBlPSJ0ZXh0L2NzcyI+JiN4YTsJLnN0MHtmaWxsOiM0Mjg1ZjQ7fSYjeGE7CS5zdDF7ZmlsbDojNjY5ZGY2O30mI3hhOwkuc3Qye2ZpbGw6I2FlY2JmYTt9JiN4YTsJLnN0M3tmaWxsOiNmZmY7fSYjeGE7CTwvc3R5bGU+JiN4YTsJPHBhdGggZD0iTTAgMGwxLjUgMS41aDZMOSAweiIgY2xhc3M9InN0MiIvPiYjeGE7CTxwYXRoIGQ9Ik05IDlWMEw3LjUgMS41djZ6IiBjbGFzcz0ic3QxIi8+JiN4YTsJPHBhdGggZD0iTTAgOWwxLjUtMS41di02TDAgMHoiIGNsYXNzPSJzdDIiLz4mI3hhOwk8cGF0aCBkPSJNOSA5TDcuNSA3LjVoLTZMMCA5eiIgY2xhc3M9InN0MCIvPiYjeGE7CTxwYXRoIGQ9Ik0xLjUgMS41aDZ2NmgtNnoiIGNsYXNzPSJzdDIiLz4mI3hhOwk8cGF0aCBkPSJNMTAuNSAwTDEyIDEuNWg2TDE5LjUgMHoiIGNsYXNzPSJzdDAiLz4mI3hhOwk8cGF0aCBkPSJNMTkuNSA5VjBMMTggMS41djZ6IiBjbGFzcz0ic3QxIi8+JiN4YTsJPHBhdGggZD0iTTEwLjUgOUwxMiA3LjV2LTZMMTAuNSAweiIgY2xhc3M9InN0MCIvPiYjeGE7CTxwYXRoIGQ9Ik0xOS41IDlMMTggNy41aC02TDEwLjUgOXoiIGNsYXNzPSJzdDEiLz4mI3hhOwk8cGF0aCBkPSJNMTIgMS41aDZ2NmgtNnoiIGNsYXNzPSJzdDMiLz4mI3hhOwk8cGF0aCBkPSJNMjEgMGwxLjUgMS41aDZMMzAgMHoiIGNsYXNzPSJzdDAiLz4mI3hhOwk8cGF0aCBkPSJNMzAgOVYwbC0xLjUgMS41djZ6IiBjbGFzcz0ic3QxIi8+JiN4YTsJPHBhdGggZD0iTTIxIDlsMS41LTEuNXYtNkwyMSAweiIgY2xhc3M9InN0MCIvPiYjeGE7CTxwYXRoIGQ9Ik0zMCA5bC0xLjUtMS41aC02TDIxIDl6IiBjbGFzcz0ic3QxIi8+JiN4YTsJPHBhdGggZD0iTTIyLjUgMS41aDZ2NmgtNnoiIGNsYXNzPSJzdDMiLz4mI3hhOwk8cGF0aCBkPSJNMCAxMmwxLjUgMS41aDZMOSAxMnoiIGNsYXNzPSJzdDAiLz4mI3hhOwk8cGF0aCBkPSJNOSAyMXYtOWwtMS41IDEuNXY2eiIgY2xhc3M9InN0MSIvPiYjeGE7CTxwYXRoIGQ9Ik0wIDIxbDEuNS0xLjV2LTZMMCAxMnoiIGNsYXNzPSJzdDAiLz4mI3hhOwk8cGF0aCBkPSJNOSAyMWwtMS41LTEuNWgtNkwwIDIxeiIgY2xhc3M9InN0MSIvPiYjeGE7CTxwYXRoIGQ9Ik0xLjUgMTMuNWg2djZoLTZ6IiBjbGFzcz0ic3QzIi8+JiN4YTsJPHBhdGggZD0iTTEwLjUgMTJsMS41IDEuNWg2bDEuNS0xLjV6IiBjbGFzcz0ic3QyIi8+JiN4YTsJPHBhdGggZD0iTTE5LjUgMjF2LTlMMTggMTMuNXY2eiIgY2xhc3M9InN0MSIvPiYjeGE7CTxwYXRoIGQ9Ik0xMC41IDIxbDEuNS0xLjV2LTZMMTAuNSAxMnoiIGNsYXNzPSJzdDIiLz4mI3hhOwk8cGF0aCBkPSJNMTkuNSAyMUwxOCAxOS41aC02TDEwLjUgMjF6IiBjbGFzcz0ic3QwIi8+JiN4YTsJPHBhdGggZD0iTTEyIDEzLjVoNnY2aC02em05LTEuNWwxLjUgMS41aDZMMzAgMTJ6IiBjbGFzcz0ic3QyIi8+JiN4YTsJPHBhdGggZD0iTTMwIDIxdi05bC0xLjUgMS41djZ6IiBjbGFzcz0ic3QxIi8+JiN4YTsJPHBhdGggZD0iTTIxIDIxbDEuNS0xLjV2LTZMMjEgMTJ6IiBjbGFzcz0ic3QyIi8+JiN4YTsJPHBhdGggZD0iTTMwIDIxbC0xLjUtMS41aC02TDIxIDIxeiIgY2xhc3M9InN0MCIvPiYjeGE7CTxwYXRoIGQ9Ik0yMi41IDEzLjVoNnY2aC02eiIgY2xhc3M9InN0MiIvPiYjeGE7PC9zdmc+;" vertex="1" parent="lH6jsk3Omo3XRQFDLpyJ-64">
          <mxGeometry width="30" height="21" relative="1" as="geometry">
            <mxPoint x="15" y="19" as="offset" />
          </mxGeometry>
        </mxCell>
        <mxCell id="lH6jsk3Omo3XRQFDLpyJ-66" value="" style="edgeStyle=orthogonalEdgeStyle;fontSize=12;html=1;endArrow=blockThin;endFill=1;rounded=0;strokeWidth=2;endSize=4;startSize=4;dashed=0;strokeColor=#9E9E9E;entryX=0;entryY=0.5;entryDx=0;entryDy=0;exitX=1;exitY=0.5;exitDx=0;exitDy=0;" edge="1" parent="1" source="lH6jsk3Omo3XRQFDLpyJ-58" target="lH6jsk3Omo3XRQFDLpyJ-64">
          <mxGeometry width="100" relative="1" as="geometry">
            <mxPoint x="740.9615384615385" y="190" as="sourcePoint" />
            <mxPoint x="841.9230769230769" y="190" as="targetPoint" />
          </mxGeometry>
        </mxCell>
        <mxCell id="lH6jsk3Omo3XRQFDLpyJ-68" value="" style="strokeColor=#dddddd;shadow=1;strokeWidth=1;rounded=1;absoluteArcSize=1;arcSize=2;" vertex="1" parent="1">
          <mxGeometry x="163" y="153" width="140" height="60" as="geometry" />
        </mxCell>
        <mxCell id="lH6jsk3Omo3XRQFDLpyJ-69" value="&lt;font color=&quot;#000000&quot;&gt;Name&lt;/font&gt;&lt;br&gt;Cloud Armor" style="editableCssRules=.*;html=1;fontColor=#999999;shape=image;verticalLabelPosition=middle;labelBackgroundColor=#ffffff;verticalAlign=middle;labelPosition=right;align=left;spacingLeft=20;part=1;points=[];imageAspect=0;image=data:image/svg+xml,PHN2ZyB4bWxucz0iaHR0cDovL3d3dy53My5vcmcvMjAwMC9zdmciIHhtbG5zOnY9Imh0dHBzOi8vdmVjdGEuaW8vbmFubyIgd2lkdGg9IjE2LjUwMDQzNDg3NTQ4ODI4IiBoZWlnaHQ9IjIwIiB2aWV3Qm94PSItMC4wMDAzNjMwODkyNjA2NDUyMTA3NCAxLjE5MjA5Mjg5NTUwNzgxMjVlLTcgMTYuNTAwNDM0ODc1NDg4MjggMjAiPiYjeGE7CTxzdHlsZSB0eXBlPSJ0ZXh0L2NzcyI+JiN4YTsJLnN0MHtmaWxsOiM2NjlkZjY7fSYjeGE7CS5zdDF7ZmlsbDojYWVjYmZhO30mI3hhOwk8L3N0eWxlPiYjeGE7CTxwYXRoIGNsYXNzPSJzdDEiIGQ9Ik0xMC40MiAxMi4wN2wxLjA0IDEuMDUtNS40NSA1LjQ4LTEuMDQtMS4wNXptLS44My00LjE5bDEuMDQgMS4wNS03LjM1IDcuMzktMS4wNC0xLjA1em0tNC4xNi0uODVsMS4wNCAxLjA1LTQuODggNC45LTEuMDQtMS4wNXoiLz4mI3hhOwk8ZyBjbGFzcz0ic3QwIj4mI3hhOwkJPHBhdGggZD0iTTguMjUgMS42MWw2Ljc4IDN2NC41NWE5LjcxIDkuNzEgMCAwIDEtNi43OCA5LjMyIDkuNyA5LjcgMCAwIDEtNi43OC05LjMxVjQuNjNsNi43OC0zbTAtMS42M0wwIDMuNjh2NS40OUExMS4xNyAxMS4xNyAwIDAgMCA4LjEgMjBoLjE1LjE1YTExLjE3IDExLjE3IDAgMCAwIDguMS0xMC43OFYzLjY4eiIvPiYjeGE7CQk8Y2lyY2xlIGN4PSIxMC45NCIgY3k9IjEyLjYyIiByPSIxLjQyIi8+JiN4YTsJCTxjaXJjbGUgY3g9IjEwLjEiIGN5PSI4LjQ1IiByPSIxLjQyIi8+JiN4YTsJCTxjaXJjbGUgY3g9IjUuOTQiIGN5PSI3LjYiIHI9IjEuNDIiLz4mI3hhOwk8L2c+JiN4YTs8L3N2Zz4=;" vertex="1" parent="lH6jsk3Omo3XRQFDLpyJ-68">
          <mxGeometry width="26" height="30" relative="1" as="geometry">
            <mxPoint x="17" y="15" as="offset" />
          </mxGeometry>
        </mxCell>
        <mxCell id="lH6jsk3Omo3XRQFDLpyJ-70" value="" style="shape=mxgraph.gcp2.doubleRect;strokeColor=#dddddd;shadow=1;strokeWidth=1;rounded=1;absoluteArcSize=1;arcSize=2;" vertex="1" parent="1">
          <mxGeometry x="262" y="308" width="168" height="68" as="geometry" />
        </mxCell>
        <mxCell id="lH6jsk3Omo3XRQFDLpyJ-71" value="&lt;font color=&quot;#000000&quot;&gt;API Gateway&lt;/font&gt;&lt;br&gt;Apigee Platform" style="editableCssRules=.*;html=1;fontColor=#999999;shape=image;verticalLabelPosition=middle;labelBackgroundColor=#ffffff;verticalAlign=middle;labelPosition=right;align=left;spacingLeft=20;part=1;points=[];imageAspect=0;image=data:image/svg+xml,PHN2ZyB4bWxucz0iaHR0cDovL3d3dy53My5vcmcvMjAwMC9zdmciIHhtbG5zOnY9Imh0dHBzOi8vdmVjdGEuaW8vbmFubyIgd2lkdGg9IjIwLjE4MDIzMTA5NDM2MDM1IiBoZWlnaHQ9IjIwLjE4MDIwODIwNjE3Njc1OCIgdmlld0JveD0iLTAuMDAwMTE1MTY1MTIzMTMzOTIwMTMgLTAuMDAwMTAzMzQ0NDkzMjU0NTUzNTMgMjAuMTgwMjMxMDk0MzYwMzUgMjAuMTgwMjA4MjA2MTc2NzU4Ij4mI3hhOwk8c3R5bGUgdHlwZT0idGV4dC9jc3MiPiYjeGE7CS5zdDB7ZmlsbDojNjY5ZGY2O2ZpbGwtcnVsZTpldmVub2RkfSYjeGE7CS5zdDF7ZmlsbC1ydWxlOmV2ZW5vZGQ7ZmlsbDojNDI4NWY0fSYjeGE7CTwvc3R5bGU+JiN4YTsJPHBhdGggY2xhc3M9InN0MCIgZD0iTTMuMjkgMTAuMDlsMS4zMi0xLjMyLTEuNzktMS43OWEyLjk0IDIuOTQgMCAwIDEgMi4wOC01IDIuOTIgMi45MiAwIDAgMSAyLjA3Ljg2bDEuOCAxLjc5IDEuMzItMS4zNEw4LjMgMS41YTQuODEgNC44MSAwIDEgMC02LjggNi44em0xMy42IDBsLTEuMzIgMS4zMiAxLjc5IDEuOGEyLjk0IDIuOTQgMCAwIDEtNC4xNiA0LjE1bC0xLjc5LTEuNzktMS4zMiAxLjMyIDEuNzkgMS43OWE0LjgxIDQuODEgMCAxIDAgNi44LTYuOHoiLz4mI3hhOwk8cGF0aCBjbGFzcz0ic3QxIiBkPSJNNi45OCAxNy4zNmEyLjk0IDIuOTQgMCAxIDEtNC4xNi00LjE2bDEuNzktMS43OSA0LjE2IDQuMTZ6bTYuMjMtMTQuNTRhMi45MyAyLjkzIDAgMCAxIDUgMi4wOCAzIDMgMCAwIDEtLjg2IDIuMDhsLTEuNzkgMS43OS00LjE1LTQuMTZ6bS0zLjEyIDEwLjQ2YTMuMiAzLjIgMCAwIDEtMy4xOS0zLjE5aDBhMy4yMSAzLjIxIDAgMCAxIDMuMTktMy4xOWgwYTMuMjEgMy4yMSAwIDAgMSAzLjE5IDMuMTloMGEzLjIgMy4yIDAgMCAxLTMuMTkgMy4xOXptNi44LTMuMTlsMS43OS0xLjc5QTQuODEgNC44MSAwIDAgMCAxNi41NzQuMTUzIDQuODEgNC44MSAwIDAgMCAxMS44OCAxLjVsLTEuNzkgMS43OS02LjggNi44LTEuNzkgMS43OWE0LjgxIDQuODEgMCAwIDAgMi4xMDYgOC4xNDdBNC44MSA0LjgxIDAgMCAwIDguMyAxOC42OGwxLjc5LTEuNzl6Ii8+JiN4YTs8L3N2Zz4=;" vertex="1" parent="lH6jsk3Omo3XRQFDLpyJ-70">
          <mxGeometry width="30" height="30" relative="1" as="geometry">
            <mxPoint x="15" y="15" as="offset" />
          </mxGeometry>
        </mxCell>
        <mxCell id="lH6jsk3Omo3XRQFDLpyJ-72" value="" style="edgeStyle=orthogonalEdgeStyle;fontSize=12;html=1;endArrow=blockThin;endFill=1;rounded=0;strokeWidth=2;endSize=4;startSize=4;dashed=0;strokeColor=#4284F3;exitX=1;exitY=0.5;exitDx=0;exitDy=0;entryX=0.5;entryY=0;entryDx=0;entryDy=0;" edge="1" parent="1" source="lH6jsk3Omo3XRQFDLpyJ-68" target="lH6jsk3Omo3XRQFDLpyJ-70">
          <mxGeometry width="100" relative="1" as="geometry">
            <mxPoint x="219" y="330" as="sourcePoint" />
            <mxPoint x="319" y="330" as="targetPoint" />
          </mxGeometry>
        </mxCell>
        <mxCell id="lH6jsk3Omo3XRQFDLpyJ-73" value="" style="edgeStyle=orthogonalEdgeStyle;fontSize=12;html=1;endArrow=blockThin;endFill=1;rounded=0;strokeWidth=2;endSize=4;startSize=4;dashed=0;strokeColor=#9E9E9E;exitX=1;exitY=0.5;exitDx=0;exitDy=0;entryX=0;entryY=0.5;entryDx=0;entryDy=0;startArrow=blockThin;startFill=1;" edge="1" parent="1" source="lH6jsk3Omo3XRQFDLpyJ-70" target="lH6jsk3Omo3XRQFDLpyJ-58">
          <mxGeometry width="100" relative="1" as="geometry">
            <mxPoint x="373" y="270" as="sourcePoint" />
            <mxPoint x="473" y="270" as="targetPoint" />
          </mxGeometry>
        </mxCell>
        <mxCell id="lH6jsk3Omo3XRQFDLpyJ-74" value="" style="edgeStyle=orthogonalEdgeStyle;fontSize=12;html=1;endArrow=blockThin;endFill=1;rounded=0;strokeWidth=2;endSize=4;startSize=4;dashed=0;strokeColor=#4284F3;exitX=1;exitY=0.5;exitDx=0;exitDy=0;entryX=0;entryY=0.5;entryDx=0;entryDy=0;" edge="1" parent="1" source="lH6jsk3Omo3XRQFDLpyJ-25" target="lH6jsk3Omo3XRQFDLpyJ-68">
          <mxGeometry width="100" relative="1" as="geometry">
            <mxPoint x="313" y="193" as="sourcePoint" />
            <mxPoint x="356" y="318" as="targetPoint" />
          </mxGeometry>
        </mxCell>
        <mxCell id="lH6jsk3Omo3XRQFDLpyJ-75" value="" style="edgeStyle=orthogonalEdgeStyle;fontSize=12;html=1;endArrow=blockThin;endFill=1;rounded=0;strokeWidth=2;endSize=4;startSize=4;dashed=0;strokeColor=#4284F3;exitX=1;exitY=0.5;exitDx=0;exitDy=0;entryX=0;entryY=0.5;entryDx=0;entryDy=0;" edge="1" parent="1" source="lH6jsk3Omo3XRQFDLpyJ-28" target="lH6jsk3Omo3XRQFDLpyJ-70">
          <mxGeometry width="100" relative="1" as="geometry">
            <mxPoint x="105" y="193" as="sourcePoint" />
            <mxPoint x="173" y="193" as="targetPoint" />
          </mxGeometry>
        </mxCell>
        <mxCell id="lH6jsk3Omo3XRQFDLpyJ-77" value="" style="edgeStyle=orthogonalEdgeStyle;fontSize=12;html=1;endArrow=blockThin;endFill=1;rounded=0;strokeWidth=2;endSize=4;startSize=4;dashed=0;strokeColor=#4284F3;exitX=1;exitY=0.5;exitDx=0;exitDy=0;entryX=0;entryY=0.5;entryDx=0;entryDy=0;" edge="1" parent="1" source="lH6jsk3Omo3XRQFDLpyJ-22" target="lH6jsk3Omo3XRQFDLpyJ-70">
          <mxGeometry width="100" relative="1" as="geometry">
            <mxPoint x="105" y="300" as="sourcePoint" />
            <mxPoint x="272" y="352" as="targetPoint" />
          </mxGeometry>
        </mxCell>
      </root>
    </mxGraphModel>
  </diagram>
</mxfile>
